<svg xmlns="http://www.w3.org/2000/svg" width="162" height="72" viewBox="0 0 162 72">
    <defs>
        <radialGradient id="a" cx="44.985%" cy="75.015%" r="65.711%" fx="44.985%" fy="75.015%" gradientTransform="matrix(1 0 0 .80112 0 .15)">
            <stop offset="34%" stop-color="#1467C1"/>
            <stop offset="100%" stop-color="#1467C1" stop-opacity="0"/>
        </radialGradient>
        <linearGradient id="b" x1="84.522%" x2="33.561%" y1="12.639%" y2="86.956%">
            <stop offset="0%" stop-color="#1467C1"/>
            <stop offset="70%" stop-color="#1467C1" stop-opacity="0"/>
        </linearGradient>
        <radialGradient id="c" cx="56.007%" cy="54.828%" r="75.354%" fx="56.007%" fy="54.828%" gradientTransform="matrix(1 0 0 .63137 0 .202)">
            <stop offset="36%" stop-color="#1467C1" stop-opacity="0"/>
            <stop offset="100%" stop-color="#1467C1"/>
        </radialGradient>
        <linearGradient id="d" x1="33869%" x2="42295%" y1="32303.379%" y2="30471.498%">
            <stop offset="0%" stop-color="#1467C1"/>
            <stop offset="70%" stop-color="#1467C1" stop-opacity="0"/>
        </linearGradient>
        <linearGradient id="e" x1="93597%" x2="94214%" y1="21413.116%" y2="13413.694%">
            <stop offset="0%" stop-color="#1467C1"/>
            <stop offset="70%" stop-color="#1467C1" stop-opacity="0"/>
        </linearGradient>
        <linearGradient id="f" x1="35779%" x2="7404%" y1="32916.309%" y2="26483.451%">
            <stop offset="0%" stop-color="#1467C1"/>
            <stop offset="70%" stop-color="#1467C1" stop-opacity="0"/>
        </linearGradient>
        <radialGradient id="g" cx="51.904%" cy="5.916%" r="39.808%" fx="51.904%" fy="5.916%" gradientTransform="matrix(.35258 0 0 1 .336 0)">
            <stop offset="70%" stop-color="#74459A" stop-opacity="0"/>
            <stop offset="100%" stop-color="#1467C1"/>
        </radialGradient>
    </defs>
    <g fill="none" fill-rule="evenodd" transform="translate(-1)">
        <ellipse cx="21.962" cy="54.463" fill="#000" fill-opacity=".05" fill-rule="nonzero" rx="17.578" ry="17.535"/>
        <path fill="url(#a)" fill-rule="nonzero" d="M43.671 35.65C40.961 50.6 29.185 60.81 17.37 58.458 5.555 56.104-1.83 42.077.88 27.127c2.71-14.95 14.486-25.16 26.301-22.806 11.815 2.354 19.2 16.38 16.49 31.33z" opacity=".15"/>
        <path fill="#1467C1" fill-rule="nonzero" d="M21.69 58.097c-3.8-.01-7.191-1.98-8.768-5.868 1.23.853 3.116-.022 2.899-1.021-2.183-.016-4.097-2.514-4.783-4.58-.686-2.067-.713-4.306-1.38-6.379-1.198-3.717-3.708-8.156-8.431-7.31 1.659-1.482 3.126-1.666 4.837-1.398-.956-2.989.899-7.624 3.593-9.42-2.492 3.677.974 4.792 1.067 7.905 3.189-6.595 6.728-8.228 8.002-11.615 1.377-3.666.578-8.051-2-10.996.96-2.149 3.813-6.355 5.921-7.415-3.202 3.05-2.07 7.302.534 7.992-1.28 1.171-1.655 3.418-.657 4.836.997 1.418 3.157 1.88 4.621.948 1.464-.93 1.943-3.132.95-4.554 2.68 1.442 5.08 3.743 5.444 6.758-8.84 6.301.05 13.018 2.935 6.84 1.26 2.565 1.816 5.457 1.149 8.235a12.523 12.523 0 0 1-3.98 6.503c-.631.544-1.908 2.144-1.749 2.703.445 1.566 3.624-.527 2.942-2.07 1.197 1.288-1.224 4.023-3.2 5.734-1.196 1.038-1.73 2.66-2.744 3.876-2.82 3.387-1.163 6.506 1.906 4.156-1.005 3.045-4.761 6.152-9.107 6.14z" opacity=".25"/>
        <path fill="url(#b)" fill-rule="nonzero" d="M14.134 31.043c.147-1.854 1.191-3.512 2.363-4.955 1.172-1.444 2.512-2.772 3.434-4.386a10.304 10.304 0 0 0 1.14-7.078c.765 1.408 2.42 2.581 4.02 2.719 1.599.137 3.249-.575 4.244-1.832.283.306.503.785.786 1.091-1.042 1.35-2.224 3.135-2.706 4.77-.48 1.636-.367 3.529.676 4.88a4.18 4.18 0 0 0 6.41.252c.39 1.887.398 3.89-.428 5.632a9.048 9.048 0 0 1-3.938 4.103" opacity=".8"/>
        <path fill="url(#c)" fill-rule="nonzero" d="M21.69 58.097c-3.8-.01-7.191-1.98-8.768-5.868 1.23.853 3.116-.022 2.899-1.021-2.183-.016-4.097-2.514-4.783-4.58-.686-2.067-.713-4.306-1.38-6.379-1.198-3.717-3.708-8.156-8.431-7.31 1.659-1.482 3.126-1.666 4.837-1.398-.956-2.989.899-7.624 3.593-9.42-2.492 3.677.974 4.792 1.067 7.905 3.189-6.595 6.728-8.228 8.002-11.615 1.377-3.666.578-8.051-2-10.996.96-2.149 3.813-6.355 5.921-7.415-3.202 3.05-2.07 7.302.534 7.992-1.28 1.171-1.655 3.418-.657 4.836.997 1.418 3.157 1.88 4.621.948 1.464-.93 1.943-3.132.95-4.554 2.68 1.442 5.08 3.743 5.444 6.758-8.84 6.301.05 13.018 2.935 6.84 1.26 2.565 1.816 5.457 1.149 8.235a12.523 12.523 0 0 1-3.98 6.503c-.631.544-1.908 2.144-1.749 2.703.445 1.566 3.624-.527 2.942-2.07 1.197 1.288-1.224 4.023-3.2 5.734-1.196 1.038-1.73 2.66-2.744 3.876-2.82 3.387-1.163 6.506 1.906 4.156-1.005 3.045-4.761 6.152-9.107 6.14z" opacity=".8"/>
        <path fill="url(#d)" fill-rule="nonzero" d="M19.69 51.436c-2.628-.25-5.03-2.13-5.899-4.617-.597-1.708-.507-3.59-1.04-5.319-.482-1.559-1.447-2.914-2.4-4.239-.953-1.324-1.922-2.675-2.42-4.228-.497-1.553-.426-3.526.552-4.831a3.722 3.722 0 0 0 3.641 3.738c1.737 7.072 3.94 13.174 7.566 19.496z" opacity=".8"/>
        <path fill="url(#e)" fill-rule="nonzero" d="M41.566 31.018c-1.383.75-2.175 2.277-2.55 3.803-.376 1.525-.416 3.114-.737 4.651-.321 1.538-.99 3.1-2.286 3.992 1.506-.486 2.743-2.104 3.142-3.632s.365-3.133.6-4.694c.233-1.562.554-3.187 1.83-4.12z"/>
        <path fill="url(#f)" fill-rule="nonzero" d="M9.823 48.549c-1.38-.655-2.239-2.087-2.684-3.546-.446-1.46-.56-2.997-.91-4.482-.351-1.485-.995-2.983-2.224-3.892.697.8.979 1.903 1.103 2.955.123 1.052.108 2.12.305 3.16.473 2.504 2.074 4.779 4.41 5.805z"/>
        <path fill="url(#g)" fill-rule="nonzero" d="M27.36 53.783c-4.869-2.148-8.593-1.152-11.542-.118 3.855 4.335 9.657 3.37 11.541.118z" opacity=".8"/>
        <path stroke="#1467C1" stroke-width="2.079" d="M12.417 46.923l-1.42 3.68 2.202 3.07 1.438-3.56zM36.305 33.891l-1.664 2.29.957 2.531 1.655-2.202z"/>
        <path stroke="#1467C1" stroke-width="2.772" d="M17.794 26.25l-6.527 7.773L21.752 54.62l10.567-20.77-6.932-7.564z"/>
        <path fill="#1467C1" fill-rule="nonzero" d="M17.938 26.352l-6.526 7.773 10.484 20.597 10.568-20.77-6.933-7.564zM12.417 46.923l-1.42 3.68 2.202 3.07 1.438-3.56zM36.305 33.891l-1.664 2.29.957 2.531 1.655-2.202z"/>
        <path stroke="#060708" stroke-width="1.926" d="M17.938 26.352l-6.526 7.773 10.484 20.597 10.568-20.77-6.933-7.564z"/>
        <path stroke="#060708" stroke-width=".866" d="M32.464 33.951l-4.947-2.464-9.434.077-6.671 2.561M21.896 54.722l5.62-23.235M18.083 31.564l3.813 23.158M27.517 31.487l-1.986-5.1M12.417 46.923l-1.42 3.68 2.202 3.07 1.438-3.56z"/>
        <path stroke="#060708" stroke-width=".693" d="M10.997 50.604l1.215-.74 2.425.249M13.199 53.672l-.987-3.808"/>
        <path stroke="#060708" stroke-width=".866" d="M36.305 33.891l-1.664 2.29.957 2.531 1.655-2.202z"/>
        <path stroke="#060708" stroke-width=".693" d="M34.64 36.18l1.711-.389.902.72M35.598 38.712l.753-2.92"/>
        <path stroke="#1467C1" stroke-width="2.079" d="M31.487 44.313l-2.677 2.743.79 3.577 2.646-2.628z"/>
        <path fill="#1467C1" fill-rule="nonzero" d="M31.487 44.313l-2.677 2.743.79 3.577 2.646-2.628z"/>
        <path stroke="#060708" stroke-width=".866" d="M31.487 44.313l-2.677 2.743.79 3.577 2.646-2.628z"/>
        <path stroke="#060708" stroke-width=".693" d="M28.81 47.056l2.368-.189 1.068 1.138M29.6 50.633l1.578-3.766"/>
        <path fill="#060708" fill-rule="nonzero" d="M27.517 31.487l-5.621 23.235 10.568-20.77z" opacity=".6"/>
        <path fill="#060708" fill-rule="nonzero" d="M25.531 26.388l1.986 5.099 4.947 2.464z" opacity=".6"/>
        <path fill="#060708" fill-rule="nonzero" d="M27.517 31.487l-9.434.077 3.813 23.158zM17.938 26.352l.145 5.212 9.434-.077-1.986-5.1zM13.199 53.672l-.987-3.808 2.425.249zM29.6 50.633l1.578-3.766 1.068 1.138zM12.417 46.923l-.205 2.94 2.425.25z" opacity=".4"/>
        <path fill="#060708" fill-rule="nonzero" d="M31.487 44.313l-.31 2.554 1.069 1.138zM35.598 38.712l.753-2.92.902.718z" opacity=".4"/>
        <path fill="#060708" fill-rule="nonzero" d="M36.305 33.891l.046 1.9.902.72z" opacity=".4"/>
        <g fill-rule="nonzero">
            <path fill="#1467C1" d="M47.063 37.25c.72-.733 1.637-1.1 2.75-1.1 1.49 0 2.579.492 3.267 1.475.38.552.584 1.106.612 1.662h-1.869c-.119-.427-.271-.75-.458-.967-.333-.387-.826-.58-1.48-.58a1.826 1.826 0 0 0-1.576.815c-.384.546-.577 1.319-.577 2.318 0 1 .202 1.75.605 2.25.406.498.921.746 1.547.746.641 0 1.13-.214 1.466-.64.186-.23.34-.575.464-1.033h1.857c-.16.971-.57 1.761-1.228 2.37-.658.608-1.502.912-2.531.912-1.273 0-2.274-.41-3.002-1.233-.728-.822-1.092-1.955-1.09-3.398 0-1.556.415-2.755 1.243-3.597zM60.918 36.55c.325.137.613.35.838.622.189.224.34.477.45.75.115.298.171.616.166.936a2.665 2.665 0 0 1-.322 1.249c-.214.409-.568.698-1.062.867.413.165.705.4.877.704.173.304.258.769.258 1.393v.599c-.01.277.007.554.05.828.036.21.161.396.344.508v.221h-2.064a4.333 4.333 0 0 1-.2-1.245l-.013-.827c-.008-.569-.106-.947-.296-1.137-.19-.189-.545-.283-1.065-.283h-1.825v3.494h-1.826v-8.91h4.279c.611.013 1.082.09 1.411.23zm-3.863 1.317v2.394h2.012c.4 0 .7-.05.9-.148.353-.169.53-.503.53-1.003 0-.54-.172-.904-.514-1.088-.192-.105-.48-.157-.864-.157l-2.064.002zM68.81 36.32h2.119l-2.993 5.568v3.34h-1.869v-3.34l-3.095-5.569h2.203l1.858 3.88zM78.003 41.373c-.524.435-1.272.653-2.244.653h-1.863v3.203H72.04v-8.91h3.841c.886 0 1.592.23 2.118.69.527.46.79 1.171.79 2.136 0 1.05-.263 1.792-.786 2.228zm-1.427-3.21c-.237-.196-.568-.295-.995-.295h-1.685v2.624h1.684c.426 0 .758-.107.995-.32.237-.214.355-.552.355-1.016 0-.464-.117-.795-.354-.993zM86.788 36.32v1.577H84.11v7.332H82.23v-7.332H79.54V36.32zM94.55 44.437c-.675.693-1.652 1.04-2.931 1.04-1.279 0-2.256-.347-2.932-1.04-.906-.85-1.359-2.075-1.359-3.675 0-1.632.453-2.857 1.36-3.675.675-.693 1.652-1.04 2.931-1.04 1.279 0 2.256.347 2.932 1.04.902.818 1.353 2.043 1.353 3.675 0 1.6-.451 2.825-1.353 3.675zm-1.168-1.353c.435-.544.653-1.318.653-2.321 0-1.003-.218-1.776-.653-2.318-.435-.546-1.023-.82-1.763-.82s-1.331.273-1.772.817c-.441.544-.662 1.318-.662 2.32 0 1.004.22 1.778.662 2.322.44.544 1.032.816 1.772.816s1.328-.272 1.763-.817z"/>
            <path fill="#000" d="M97.753 36.332h6.378v1.565H99.61v2.049h3.963v1.548H99.61v3.736h-1.857zM107.05 45.23h-1.859v-8.91h1.858zM114.815 39.1c-.141-.609-.487-1.034-1.036-1.276a2.56 2.56 0 0 0-1.026-.199 2.234 2.234 0 0 0-1.777.811c-.463.54-.695 1.354-.695 2.44 0 1.094.25 1.869.753 2.323.502.454 1.072.681 1.711.682.627 0 1.141-.18 1.542-.538.402-.358.648-.828.74-1.409h-2.072v-1.487h3.726v4.782h-1.237l-.185-1.112c-.36.42-.684.718-.97.89-.494.301-1.101.452-1.822.452-1.184 0-2.156-.41-2.913-1.227-.79-.822-1.185-1.945-1.185-3.371 0-1.442.399-2.597 1.196-3.465.797-.869 1.851-1.304 3.162-1.305 1.135 0 2.048.287 2.739.86.69.575 1.086 1.291 1.184 2.15l-1.835-.001zM118.455 45.23v-8.91h1.858v3.397h3.479v-3.398h1.857v8.91h-1.857v-3.977h-3.48v3.977zM133.943 36.32v1.577h-2.676v7.332h-1.882v-7.332h-2.688V36.32zM141.652 37.897h-4.734v1.892h4.345v1.548h-4.345v2.29h4.952v1.602h-6.78v-8.91h6.562zM149.06 36.55c.325.137.612.35.837.622.19.224.341.477.45.75.116.298.172.616.166.936a2.665 2.665 0 0 1-.32 1.249c-.216.409-.57.698-1.063.867.412.165.705.4.877.704.172.304.258.769.258 1.393v.599c-.01.277.007.554.05.828.035.21.161.396.344.508v.221h-2.064a4.333 4.333 0 0 1-.2-1.245l-.014-.827c-.007-.569-.106-.947-.296-1.137-.19-.189-.545-.283-1.064-.283h-1.826v3.494h-1.826v-8.91h4.279c.612.013 1.082.09 1.412.23zm-3.863 1.317v2.394h2.012c.4 0 .7-.05.9-.148.353-.169.53-.503.53-1.003 0-.54-.172-.904-.514-1.088-.192-.105-.48-.157-.864-.157l-2.064.002zM153.65 42.478c.058.407.172.712.341.913.31.367.841.55 1.593.55.45 0 .815-.049 1.096-.147.533-.186.8-.53.8-1.032a.762.762 0 0 0-.392-.684c-.261-.157-.675-.296-1.242-.417l-.969-.212c-.952-.21-1.606-.437-1.961-.682-.603-.411-.905-1.054-.904-1.928a2.557 2.557 0 0 1 .884-1.991c.59-.528 1.456-.792 2.6-.792.953 0 1.768.249 2.442.746.675.498 1.028 1.22 1.06 2.167h-1.796c-.033-.536-.274-.916-.722-1.142-.299-.147-.669-.221-1.11-.221-.494 0-.889.097-1.185.29a.918.918 0 0 0-.444.811.763.763 0 0 0 .435.713c.187.105.584.228 1.19.369l1.57.369c.687.161 1.203.377 1.547.646.533.42.8 1.026.8 1.82 0 .813-.317 1.49-.948 2.028-.632.539-1.525.808-2.678.807-1.178 0-2.105-.265-2.78-.795-.674-.53-1.011-1.258-1.011-2.185h1.785zM162.33 37.34a1.217 1.217 0 0 1-2.435.005c0-.669.543-1.212 1.215-1.213a1.215 1.215 0 0 1 1.22 1.208zm-.36 0a.852.852 0 0 0-.857-.84.852.852 0 0 0-.85.848c0 .468.379.848.848.851a.852.852 0 0 0 .86-.859zm-.522.148l.215.35h-.404l-.13-.279h-.12v.278h-.358v-1.072h.506c.296 0 .462.139.462.38a.376.376 0 0 1-.17.341v.002zm-.29-.2a.129.129 0 1 0 0-.257h-.148v.257h.148z"/>
        </g>
    </g>
</svg>
