<svg width="456" height="95" viewBox="0 0 456 95" fill="none" xmlns="http://www.w3.org/2000/svg">
<mask id="mask0_1977_415" style="mask-type:luminance" maskUnits="userSpaceOnUse" x="25" y="26" width="164" height="69">
<path d="M188.859 50.2704C126.136 94.9038 94.0266 97.3011 47.1819 52.333C45.2545 50.4834 44.585 48.8536 46.1675 45.1883C47.75 41.5229 53.4136 28.3189 53.4136 28.3189C53.5117 28.0926 53.5348 27.8408 53.4796 27.6005C53.4244 27.3601 53.2938 27.1436 53.1068 26.9828C52.9199 26.8219 52.6864 26.725 52.4405 26.7062C52.1946 26.6874 51.9491 26.7478 51.7399 26.8785C39.77 34.3173 33.1934 39.5347 26.8162 46.9466C24.7874 49.3135 25.1459 52.9078 27.4925 54.9603C57.7451 81.365 81.8607 94.6704 105.939 94.6738C131.262 94.6738 156.527 79.955 188.869 50.2704" fill="white"/>
</mask>
<g mask="url(#mask0_1977_415)">
<path d="M47.6505 154.12L213.459 87.3984L165.993 -30.5571L0.184832 36.1647L47.6505 154.12Z" fill="url(#paint0_linear_1977_415)"/>
</g>
<mask id="mask1_1977_415" style="mask-type:luminance" maskUnits="userSpaceOnUse" x="0" y="0" width="164" height="68">
<path d="M0.0101435 44.4034C62.7335 -0.229927 94.8425 -2.62728 141.687 42.3408C143.615 44.1904 144.284 45.8202 142.702 49.4856C141.119 53.1509 135.455 66.3549 135.455 66.3549C135.357 66.5812 135.334 66.833 135.39 67.0734C135.445 67.3137 135.575 67.5302 135.762 67.6911C135.949 67.852 136.183 67.9489 136.429 67.9676C136.675 67.9864 136.92 67.926 137.129 67.7954C149.099 60.3565 155.676 55.1391 162.053 47.7273C164.082 45.3603 163.723 41.766 161.377 39.7135C131.124 13.3089 107.008 0.00338132 82.9301 0C57.6075 0 32.3423 14.7189 0 44.4034" fill="white"/>
</mask>
<g mask="url(#mask1_1977_415)">
<path d="M141.219 -59.4464L-24.5898 7.27539L22.8758 125.231L188.684 58.5092L141.219 -59.4464Z" fill="url(#paint1_linear_1977_415)"/>
</g>
<path d="M202.41 57.4972C199.692 57.4972 197.396 57.3082 195.521 56.9303C193.694 56.5523 192.217 55.8436 191.093 54.8042C190.015 53.7648 189.218 52.3238 188.703 50.4813C188.234 48.5914 188 46.1583 188 43.1818C188 39.7801 188.422 36.9926 189.265 34.8193C190.109 32.646 191.608 31.0397 193.764 30.0003C195.92 28.9609 198.942 28.4412 202.832 28.4412C205.831 28.4412 208.221 28.8428 210.001 29.6459C211.829 30.4491 213.141 31.6775 213.938 33.3311C214.781 34.9847 215.203 37.1344 215.203 39.7801V43.8196H195.381C195.381 43.2527 195.521 42.7802 195.802 42.4023C196.084 41.977 196.599 41.7644 197.349 41.7644H210.774L210.704 39.7093C210.657 36.78 210.025 34.654 208.806 33.3311C207.635 32.0082 205.573 31.3468 202.621 31.3468C200.137 31.3468 198.192 31.7247 196.786 32.4807C195.381 33.2366 194.397 34.465 193.834 36.1658C193.272 37.8667 192.991 40.1817 192.991 43.1109C192.991 46.2291 193.295 48.615 193.904 50.2686C194.561 51.875 195.638 52.9853 197.138 53.5995C198.637 54.1664 200.676 54.4499 203.253 54.4499C204.144 54.4499 205.151 54.4263 206.276 54.379C207.447 54.2845 208.619 54.19 209.79 54.0955C210.962 54.001 211.993 53.8829 212.883 53.7412C213.82 53.5522 214.477 53.3632 214.851 53.1743V54.0247C214.851 54.4971 214.711 54.946 214.43 55.3712C214.195 55.7964 213.68 56.1507 212.883 56.4342C211.852 56.8594 210.446 57.1429 208.666 57.2846C206.932 57.4264 204.847 57.4972 202.41 57.4972Z" fill="#D1EFF1"/>
<path d="M233.749 64.9384C231.64 64.9384 229.649 64.8203 227.774 64.5841C225.9 64.3951 224.377 64.088 223.205 63.6628C222.034 63.2376 221.448 62.7651 221.448 62.2454V60.4737C222.198 60.8989 223.182 61.2532 224.4 61.5367C225.665 61.8202 227.001 62.0328 228.407 62.1745C229.813 62.3635 231.172 62.458 232.484 62.458C234.733 62.458 236.561 62.1509 237.966 61.5367C239.419 60.9225 240.497 59.9304 241.2 58.5602C241.95 57.1901 242.324 55.4657 242.324 53.3869V49.56C241.903 50.5049 241.223 51.308 240.286 51.9695C239.349 52.6309 238.177 53.1034 236.771 53.3869C235.412 53.6703 233.819 53.8121 231.992 53.8121C228.664 53.8121 226.204 53.3396 224.611 52.3947C223.065 51.4498 222.057 50.1033 221.588 48.3552C221.167 46.6071 220.956 44.5756 220.956 42.2605V31.5594C220.956 30.8507 220.979 30.3074 221.026 29.9294C221.12 29.5042 221.284 29.2207 221.518 29.079C221.799 28.89 222.244 28.7955 222.854 28.7955H225.946C225.946 30.0239 225.946 31.205 225.946 32.3389C225.946 33.4256 225.946 34.5122 225.946 35.5989C225.946 36.6383 225.946 37.7013 225.946 38.788C225.946 39.8746 225.946 41.0321 225.946 42.2605C225.946 44.9535 226.298 46.9378 227.001 48.2135C227.751 49.4891 228.735 50.2923 229.953 50.623C231.218 50.9537 232.601 51.1191 234.1 51.1191C235.6 51.1191 236.959 50.9301 238.177 50.5521C239.396 50.1269 240.38 49.3237 241.129 48.1426C241.879 46.9615 242.254 45.1897 242.254 42.8275V28.7955H245.277C245.98 28.7955 246.472 28.9136 246.753 29.1499C247.081 29.3388 247.245 29.9294 247.245 30.9216V52.8199C247.245 57.0248 246.144 60.0957 243.941 62.0328C241.786 63.9699 238.388 64.9384 233.749 64.9384Z" fill="#D1EFF1"/>
<path d="M268.171 57.4972C265.453 57.4972 263.157 57.3082 261.282 56.9303C259.455 56.5523 257.979 55.8436 256.854 54.8042C255.776 53.7648 254.979 52.3238 254.464 50.4813C253.995 48.5914 253.761 46.1583 253.761 43.1818C253.761 39.7801 254.183 36.9926 255.026 34.8193C255.87 32.646 257.369 31.0397 259.525 30.0003C261.681 28.9609 264.703 28.4412 268.593 28.4412C271.592 28.4412 273.982 28.8428 275.762 29.6459C277.59 30.4491 278.902 31.6775 279.699 33.3311C280.542 34.9847 280.964 37.1344 280.964 39.7801V43.8196H261.142C261.142 43.2527 261.282 42.7802 261.563 42.4023C261.845 41.977 262.36 41.7644 263.11 41.7644H276.536L276.465 39.7093C276.418 36.78 275.786 34.654 274.567 33.3311C273.396 32.0082 271.334 31.3468 268.382 31.3468C265.898 31.3468 263.953 31.7247 262.548 32.4807C261.142 33.2366 260.158 34.465 259.595 36.1658C259.033 37.8667 258.752 40.1817 258.752 43.1109C258.752 46.2291 259.056 48.615 259.666 50.2686C260.322 51.875 261.399 52.9853 262.899 53.5995C264.399 54.1664 266.437 54.4499 269.014 54.4499C269.905 54.4499 270.912 54.4263 272.037 54.379C273.208 54.2845 274.38 54.19 275.552 54.0955C276.723 54.001 277.754 53.8829 278.644 53.7412C279.582 53.5522 280.238 53.3632 280.613 53.1743V54.0247C280.613 54.4971 280.472 54.946 280.191 55.3712C279.956 55.7964 279.441 56.1507 278.644 56.4342C277.613 56.8594 276.208 57.1429 274.427 57.2846C272.693 57.4264 270.608 57.4972 268.171 57.4972Z" fill="#D1EFF1"/>
<path d="M296.487 57.072C295.691 57.072 295.011 56.9775 294.449 56.7885C293.887 56.5523 293.395 56.1744 292.973 55.6546C292.598 55.1349 292.247 54.4263 291.918 53.5286L283.624 28.7955H288.755L294.941 49.0639C295.316 50.245 295.738 51.0482 296.206 51.4734C296.722 51.8514 297.636 52.0404 298.948 52.0404C300.072 48.4024 301.127 44.7645 302.111 41.1266C303.142 37.4887 304.196 33.8744 305.274 30.2838C305.414 29.8113 305.625 29.457 305.907 29.2207C306.188 28.9373 306.633 28.7955 307.242 28.7955H309.14L300.072 57.072H296.487Z" fill="#D1EFF1"/>
<path d="M319.818 57.3555C317.615 57.3555 316.139 56.7649 315.389 55.5838C314.64 54.4026 314.265 52.6782 314.265 50.4104V28.7955H319.185V50.1269C319.185 52.064 319.396 53.3632 319.818 54.0247C320.239 54.6861 320.989 55.0168 322.067 55.0168C322.442 55.0168 322.91 54.9696 323.473 54.8751C324.035 54.7806 324.387 54.7097 324.527 54.6625V56.8594C324.387 56.9067 324.105 56.9775 323.684 57.072C323.309 57.1193 322.793 57.1665 322.137 57.2137C321.528 57.3082 320.755 57.3555 319.818 57.3555ZM316.795 24.6852C315.998 24.6852 315.366 24.567 314.897 24.3308C314.429 24.0946 314.194 23.5985 314.194 22.8426C314.194 22.0866 314.405 21.5906 314.827 21.3543C315.296 21.1181 315.928 21 316.725 21C317.615 21 318.271 21.1181 318.693 21.3543C319.115 21.5906 319.302 22.0866 319.255 22.8426C319.255 23.5985 319.044 24.0946 318.623 24.3308C318.201 24.567 317.592 24.6852 316.795 24.6852Z" fill="#D1EFF1"/>
<path d="M341.246 57.5681C338.481 57.5681 336.231 57.4264 334.498 57.1429C332.764 56.8594 331.428 56.387 330.491 55.7255C329.601 55.0168 328.968 54.0955 328.593 52.9616C328.265 51.8278 328.101 50.434 328.101 48.7804C328.101 46.3709 328.382 44.5283 328.945 43.2527C329.507 41.977 330.491 41.103 331.897 40.6305C333.303 40.1581 335.177 39.9219 337.52 39.9219C338.692 39.9219 339.957 39.9691 341.316 40.0636C342.722 40.1108 344.057 40.1817 345.323 40.2762C346.635 40.3234 347.759 40.3943 348.697 40.4888C349.681 40.5833 350.337 40.7014 350.665 40.8431C350.665 38.6699 350.477 36.9454 350.102 35.6698C349.727 34.3941 349.142 33.4492 348.345 32.835C347.595 32.2208 346.635 31.8192 345.463 31.6303C344.338 31.4413 343.026 31.3468 341.527 31.3468C339.98 31.3468 338.411 31.4177 336.817 31.5594C335.271 31.6539 333.842 31.8429 332.529 32.1263C331.217 32.3626 330.21 32.6933 329.507 33.1185V32.0555C329.507 31.0633 329.788 30.3782 330.35 30.0003C330.96 29.5751 331.639 29.2916 332.389 29.1499C333.279 28.9136 334.568 28.7247 336.255 28.5829C337.989 28.4412 339.793 28.3939 341.667 28.4412C344.057 28.4412 346.096 28.5593 347.783 28.7955C349.517 29.0317 350.946 29.5514 352.071 30.3546C353.195 31.1106 354.039 32.2681 354.601 33.8272C355.163 35.3863 355.445 37.5123 355.445 40.2053V54.8042C355.163 55.7491 353.922 56.4578 351.719 56.9303C349.517 57.3555 346.025 57.5681 341.246 57.5681ZM341.246 55.1586C343.401 55.1586 345.112 55.0877 346.377 54.946C347.689 54.8042 348.673 54.6152 349.329 54.379C350.032 54.1428 350.477 53.8357 350.665 53.4577V42.8983C350.243 42.7566 349.446 42.6149 348.275 42.4731C347.15 42.3314 345.955 42.2133 344.69 42.1188C343.425 41.977 342.347 41.9062 341.456 41.9062C339.441 41.9062 337.801 42.0243 336.536 42.2605C335.318 42.4967 334.427 43.0873 333.865 44.0322C333.35 44.9771 333.092 46.4418 333.092 48.4261C333.092 49.9852 333.279 51.2608 333.654 52.253C334.029 53.2451 334.779 53.9774 335.903 54.4499C337.075 54.9223 338.856 55.1586 341.246 55.1586Z" fill="#D1EFF1"/>
<path d="M370.304 57.2846C368.711 57.2846 367.469 57.0956 366.579 56.7177C365.688 56.2925 365.032 55.5838 364.61 54.5916C364.189 53.5995 363.978 52.253 363.978 50.5521V31.5594H361.307V28.7955H363.978V23.693C363.978 22.9843 364.025 22.4646 364.118 22.1339C364.259 21.7559 364.47 21.5197 364.751 21.4252C365.032 21.3307 365.431 21.2835 365.946 21.2835H368.969C368.969 21.378 368.945 21.5906 368.898 21.9213C368.898 22.2048 368.898 22.63 368.898 23.1969V28.7955H375.435V31.5594H368.898V49.9852C368.898 51.8277 369.086 53.127 369.461 53.8829C369.835 54.6389 370.679 55.0168 371.991 55.0168C372.507 55.0168 373.045 54.9696 373.608 54.8751C374.17 54.7806 374.568 54.6861 374.803 54.5916V56.7885C374.522 56.8358 373.983 56.9303 373.186 57.072C372.389 57.2137 371.429 57.2846 370.304 57.2846Z" fill="#D1EFF1"/>
<path d="M386.746 57.3555C384.543 57.3555 383.067 56.7649 382.317 55.5838C381.568 54.4026 381.193 52.6782 381.193 50.4104V28.7955H386.113V50.1269C386.113 52.064 386.324 53.3632 386.746 54.0247C387.167 54.6861 387.917 55.0168 388.995 55.0168C389.37 55.0168 389.839 54.9696 390.401 54.8751C390.963 54.7806 391.315 54.7097 391.455 54.6625V56.8594C391.315 56.9067 391.034 56.9775 390.612 57.072C390.237 57.1193 389.721 57.1665 389.065 57.2137C388.456 57.3082 387.683 57.3555 386.746 57.3555ZM383.723 24.6852C382.927 24.6852 382.294 24.567 381.825 24.3308C381.357 24.0946 381.122 23.5985 381.122 22.8426C381.122 22.0866 381.333 21.5906 381.755 21.3543C382.224 21.1181 382.856 21 383.653 21C384.543 21 385.199 21.1181 385.621 21.3543C386.043 21.5906 386.23 22.0866 386.183 22.8426C386.183 23.5985 385.973 24.0946 385.551 24.3308C385.129 24.567 384.52 24.6852 383.723 24.6852Z" fill="#D1EFF1"/>
<path d="M408.952 57.4972C406.796 57.4972 404.852 57.3319 403.118 57.0011C401.431 56.6704 399.955 56.009 398.689 55.0168C397.471 54.0247 396.534 52.5601 395.878 50.623C395.222 48.6859 394.894 46.1347 394.894 42.9692C394.894 39.8037 395.222 37.2525 395.878 35.3154C396.534 33.3783 397.471 31.9137 398.689 30.9216C399.955 29.9294 401.431 29.268 403.118 28.9373C404.852 28.6065 406.796 28.4412 408.952 28.4412C411.061 28.4412 412.958 28.6065 414.645 28.9373C416.379 29.268 417.855 29.9294 419.074 30.9216C420.292 31.9137 421.229 33.3783 421.885 35.3154C422.542 37.2525 422.87 39.8037 422.87 42.9692C422.87 46.1819 422.542 48.7568 421.885 50.6939C421.229 52.6309 420.292 54.0955 419.074 55.0877C417.855 56.0326 416.379 56.6704 414.645 57.0011C412.958 57.3319 411.061 57.4972 408.952 57.4972ZM408.952 54.7334C410.826 54.7334 412.42 54.4499 413.732 53.8829C415.091 53.316 416.122 52.2057 416.825 50.5521C417.527 48.8985 417.879 46.3709 417.879 42.9692C417.879 39.5675 417.527 37.0399 416.825 35.3863C416.122 33.7327 415.091 32.6224 413.732 32.0555C412.42 31.4885 410.826 31.205 408.952 31.205C407.077 31.205 405.461 31.4885 404.102 32.0555C402.79 32.6224 401.759 33.7327 401.009 35.3863C400.306 37.0399 399.955 39.5675 399.955 42.9692C399.955 46.3709 400.306 48.8985 401.009 50.5521C401.759 52.2057 402.79 53.316 404.102 53.8829C405.461 54.4499 407.077 54.7334 408.952 54.7334Z" fill="#D1EFF1"/>
<path d="M431.82 57.072C430.742 57.072 430.203 56.5051 430.203 55.3712V30.8507C431.562 30.2365 433.343 29.6932 435.545 29.2207C437.794 28.7483 440.372 28.512 443.277 28.512C445.995 28.512 448.198 28.701 449.885 29.079C451.572 29.457 452.86 30.0239 453.751 30.7798C454.641 31.5358 455.227 32.5279 455.508 33.7563C455.836 34.9374 456 36.3784 456 38.0793V54.946C456 55.4657 455.93 55.8909 455.789 56.2216C455.695 56.5523 455.485 56.7885 455.157 56.9303C454.875 57.0248 454.43 57.072 453.821 57.072H451.08V37.0871C451.08 35.1973 450.47 33.8036 449.252 32.9059C448.034 32.0082 446.042 31.5594 443.277 31.5594C442.387 31.5594 441.403 31.6303 440.325 31.772C439.294 31.9137 438.31 32.1263 437.373 32.4098C436.436 32.646 435.662 32.9768 435.053 33.402V57.072H431.82Z" fill="#D1EFF1"/>
<defs>
<linearGradient id="paint0_linear_1977_415" x1="244.8" y1="7.35517" x2="94.143" y2="67.9802" gradientUnits="userSpaceOnUse">
<stop offset="0.635" stop-color="#65C8D0" stop-opacity="0"/>
<stop offset="1" stop-color="#65C8D0"/>
</linearGradient>
<linearGradient id="paint1_linear_1977_415" x1="-55.9313" y1="87.3187" x2="94.7261" y2="26.6937" gradientUnits="userSpaceOnUse">
<stop offset="0.635" stop-color="#65C8D0" stop-opacity="0"/>
<stop offset="1" stop-color="#65C8D0"/>
</linearGradient>
</defs>
</svg>
