<svg width="156" height="28" viewBox="0 0 156 28" fill="none" xmlns="http://www.w3.org/2000/svg">
<path fill-rule="evenodd" clip-rule="evenodd" d="M0 0.717361L0.040175 26.5424C0.040175 26.9409 0.40175 27.2996 0.803499 27.2996H5.58432C6.02625 27.2996 6.34764 26.9409 6.34764 26.5424V13.5046L22.0159 27.2597C22.3373 27.5785 22.6185 27.6981 23.0203 27.6981H23.422C23.8238 27.6981 24.1853 27.459 24.1853 26.9807V7.29744C24.1853 6.8989 23.8238 6.54022 23.422 6.54022H18.601C18.1591 6.54022 17.8377 6.8989 17.8377 7.29744V14.6846L2.37032 0.597801C2.04892 0.278974 1.7677 0 1.36595 0H0.763324C0.361575 0 0 0.318827 0 0.717361ZM37.1678 27.6981C31.1995 27.6981 26.2711 22.6967 26.2711 16.7491C26.2711 10.8916 31.1995 5.93531 37.1678 5.93531C43.1362 5.93531 48.0194 10.8916 48.0194 16.7491C48.0194 22.6967 43.1362 27.6981 37.1678 27.6981ZM37.1678 12.3335C34.7262 12.3335 32.782 14.3611 32.782 16.7491C32.782 19.1822 34.7262 21.2549 37.1678 21.2549C39.5642 21.2549 41.5084 19.1822 41.5084 16.7491C41.5084 14.3611 39.5642 12.3335 37.1678 12.3335ZM56.5311 27.1574C56.7119 27.4278 57.0737 27.6981 57.3902 27.6981H57.6614C57.978 27.6981 58.4301 27.4278 58.5657 27.1574L68.0156 7.82772C68.4226 7.1068 67.9252 6.38588 67.1113 6.38588L62.3475 6.38677C61.8791 6.39761 61.5822 6.476 61.3691 6.97163L57.6162 15.3974H57.4806L53.9086 6.97163C53.773 6.61117 53.366 6.38588 52.9591 6.38588H48.0307C47.262 6.38588 46.8099 7.1068 47.1264 7.82772L56.5311 27.1574ZM78.0646 27.6981C72.0963 27.6981 67.1679 22.6967 67.1679 16.7491C67.1679 10.8916 72.0963 5.93531 78.0646 5.93531C84.033 5.93531 88.9162 10.8916 88.9162 16.7491C88.9162 22.6967 84.033 27.6981 78.0646 27.6981ZM73.6788 16.7491C73.6788 14.3611 75.623 12.3335 78.0646 12.3335C80.461 12.3335 82.4053 14.3611 82.4053 16.7491C82.4053 19.1822 80.461 21.2549 78.0646 21.2549C75.623 21.2549 73.6788 19.1822 73.6788 16.7491ZM90.3744 25.9859C91.7308 26.7969 94.4437 27.6981 97.8348 27.6981C103.396 27.6981 106.335 24.6792 106.335 21.0746C106.335 17.0792 103.211 15.3777 99.2754 13.9001L98.4372 13.5907C97.1037 13.0912 96.3427 12.6621 96.3427 12.1532C96.3427 11.6126 96.6592 11.2972 97.8348 11.2972C99.5078 11.2972 101.316 11.8829 102.718 12.5588C103.125 12.739 103.668 12.5588 103.803 12.1983L105.431 8.86405C105.702 8.32336 105.431 7.78267 104.888 7.51232C103.306 6.70128 100.457 5.93531 97.7444 5.93531C92.3186 5.93531 89.8318 8.68382 89.8318 12.4236C89.8318 15.7578 91.9117 17.6052 95.9358 19.1822C98.3774 20.1284 99.5078 20.6691 99.5078 21.345C99.5078 21.8406 99.2817 22.3363 97.9252 22.3363C96.0262 22.3363 94.4437 21.8406 92.7708 21.0296C92.3186 20.8043 91.8212 21.1197 91.6856 21.4802L90.0126 24.9045C89.7866 25.3551 89.9222 25.7156 90.3744 25.9859ZM127.818 6.05896C130.431 6.05896 133.263 7.13386 135.336 8.91247C135.783 9.25554 135.831 9.87003 135.439 10.2566L133.053 12.7618C132.684 13.0806 132.159 13.0943 131.745 12.785C130.744 11.8738 129.56 11.4659 128.086 11.4659C125.058 11.4659 122.577 13.9955 122.577 17.059C122.577 20.0786 125.074 22.5636 128.116 22.5636C128.939 22.5636 129.688 22.4527 130.399 22.2053V21.1206H128.893C128.365 21.1206 127.95 20.7259 127.95 20.2182V17.2952C127.95 16.7656 128.357 16.3633 128.893 16.3633H134.897C135.404 16.3633 135.81 16.7953 135.81 17.2938L135.84 25.2375C135.84 25.5926 135.701 25.821 135.426 26.0236L135.201 26.1539C135.169 26.1717 135.135 26.1905 135.098 26.2103L134.848 26.3401C134.39 26.5714 133.864 26.8022 133.276 27.0173C131.598 27.6315 129.76 28 127.818 28C121.65 28 116.719 23.1535 116.719 17.059C116.719 10.9538 121.661 6.05896 127.818 6.05896ZM147.978 6.05896C150.591 6.05896 153.424 7.13386 155.497 8.91247C155.943 9.25554 155.991 9.87003 155.599 10.2566L153.213 12.7618C152.845 13.0806 152.319 13.0943 151.905 12.785C150.905 11.8738 149.721 11.4659 148.247 11.4659C145.218 11.4659 142.737 13.9955 142.737 17.059C142.737 20.0786 145.234 22.5636 148.276 22.5636C149.099 22.5636 149.848 22.4527 150.56 22.2053V21.1206H149.053C148.525 21.1206 148.11 20.7259 148.11 20.2182V17.2952C148.11 16.7656 148.517 16.3633 149.053 16.3633H155.057C155.564 16.3633 155.97 16.7953 155.97 17.2938L156 25.2375C156 25.5494 155.886 25.777 155.671 25.9597L155.586 26.0236L155.362 26.1539C155.329 26.1717 155.295 26.1905 155.258 26.2103L155.008 26.3401C154.55 26.5714 154.024 26.8022 153.436 27.0173C151.759 27.6315 149.92 28 147.978 28C141.81 28 136.879 23.1535 136.879 17.059C136.879 10.9538 141.821 6.05896 147.978 6.05896ZM111.647 27.7332C109.846 27.7332 108.319 26.2247 108.319 24.4446C108.319 22.6041 109.846 21.0956 111.647 21.0956C113.448 21.0956 115.035 22.6041 115.035 24.4446C115.035 26.2247 113.448 27.7332 111.647 27.7332Z" fill="url(#paint0_linear)"/>
<defs>
<linearGradient id="paint0_linear" x1="105.26" y1="-7.19844" x2="95.7694" y2="28.8478" gradientUnits="userSpaceOnUse">
<stop stop-color="#DD265C"/>
<stop offset="1" stop-color="#99277D"/>
</linearGradient>
</defs>
</svg>
